<svg xmlns="http://www.w3.org/2000/svg" width="1200" height="438" viewBox="0 0 1200 438" role="img" aria-label="offscript — Transcribe any audio or video in 100 languages, on your own machine. Nothing gets uploaded, no API keys, no subscription, files or 1800+ sites.">
  <rect width="1200" height="438" fill="#fbfbfd"/>
  <g>
    <rect x="72" y="120" width="80" height="80" rx="20" fill="#1d1d1f"/>
    <rect x="89.0" y="151.7" width="6" height="16.6" rx="3.0" fill="#fbfbfd"/>
    <rect x="99.0" y="144.4" width="6" height="31.3" rx="3.0" fill="#fbfbfd"/>
    <rect x="109.0" y="137.0" width="6" height="46.0" rx="3.0" fill="#fbfbfd"/>
    <rect x="119.0" y="146.4" width="6" height="27.1" rx="3.0" fill="#fbfbfd"/>
    <rect x="129.0" y="150.6" width="6" height="18.9" rx="3.0" fill="#fbfbfd"/>
  </g>
  <text x="184" y="158" font-family="'Helvetica Neue', -apple-system, BlinkMacSystemFont, Inter, 'Segoe UI', Arial, sans-serif" font-size="92" font-weight="700" letter-spacing="-3.2" fill="#1d1d1f">offscript</text>
  <text x="187" y="220" font-family="'Helvetica Neue', -apple-system, BlinkMacSystemFont, Inter, 'Segoe UI', Arial, sans-serif" font-size="28" font-weight="400" fill="#3c3c41">Transcribe any audio or video in 100 languages, on your own machine.</text>
  <rect x="187" y="250" width="530" height="46" rx="10" fill="#f0f0f4"/>
  <text x="207" y="280" font-family="'SF Mono', Menlo, Consolas, ui-monospace, monospace" font-size="18" fill="#3c3c41"><tspan fill="#6e6e73">$ </tspan>offscript interview.m4a<tspan fill="#0d9488"> → transcript.srt</tspan></text>
  <line x1="72" y1="338" x2="1128" y2="338" stroke="#e0e0e6" stroke-width="1"/>
  <circle cx="76" cy="369" r="4.5" fill="#0d9488"/><text x="90" y="376" font-family="'Helvetica Neue', -apple-system, BlinkMacSystemFont, Inter, 'Segoe UI', Arial, sans-serif" font-size="21" font-weight="500" fill="#1d1d1f">Nothing gets uploaded</text>
  <circle cx="394" cy="369" r="4.5" fill="#0d9488"/><text x="408" y="376" font-family="'Helvetica Neue', -apple-system, BlinkMacSystemFont, Inter, 'Segoe UI', Arial, sans-serif" font-size="21" font-weight="500" fill="#1d1d1f">No API keys</text>
  <circle cx="604" cy="369" r="4.5" fill="#0d9488"/><text x="618" y="376" font-family="'Helvetica Neue', -apple-system, BlinkMacSystemFont, Inter, 'Segoe UI', Arial, sans-serif" font-size="21" font-weight="500" fill="#1d1d1f">No subscription</text>
  <circle cx="854" cy="369" r="4.5" fill="#0d9488"/><text x="868" y="376" font-family="'Helvetica Neue', -apple-system, BlinkMacSystemFont, Inter, 'Segoe UI', Arial, sans-serif" font-size="21" font-weight="500" fill="#1d1d1f">Files or 1800+ sites</text>
</svg>
